<svg fill="none" height="41" viewBox="0 0 239 41" width="239" xmlns="http://www.w3.org/2000/svg"><g fill="#fff"><path d="m48.0743 13.0002c4.12 0 7.1 2.94 7.1 7s-2.98 7-7.1 7h-5.28v-14zm-.06 11.2c2.4 0 4.06-1.76 4.06-4.2 0-2.48-1.66-4.18-4.06-4.18h-2.2v8.38zm19.8843-2.62c0 .28-.02.56-.06.84h-8.18c.26 1.48 1.22 2.3 2.64 2.3 1.02 0 1.86-.48 2.3-1.26h3.06c-.78 2.36-2.84 3.86-5.36 3.86-3.18 0-5.6-2.48-5.6-5.72s2.4-5.7 5.6-5.7c3.32 0 5.6 2.56 5.6 5.68zm-5.6-3.18c-1.3 0-2.22.76-2.56 2.04h5.24c-.42-1.32-1.36-2.04-2.68-2.04zm12.6985 8.92c-3.26 0-5.74-2.5-5.74-5.74s2.48-5.68 5.76-5.68c2.8 0 4.96 1.78 5.48 4.44h-2.9c-.46-1.06-1.44-1.7-2.6-1.7-1.58 0-2.78 1.28-2.78 2.96 0 1.66 1.22 2.96 2.78 2.96 1.18 0 2.1-.64 2.6-1.8h2.94c-.5 2.72-2.72 4.56-5.54 4.56zm17.66-.32h-3.54l-3.46-5.16v5.16h-2.92v-14.68h2.92v8.68l3.24-4.8h3.36l-3.66 5.16zm7.4849-11.04c2.44 0 3.96 1.74 3.96 4.48v6.56h-2.92v-6.06c0-1.62-.58-2.42-1.8805-2.42-1.46 0-2.42 1.06-2.42 2.82v5.66h-2.92v-14.68h2.92v4.9c.82-.78 1.96-1.26 3.2605-1.26zm11.752 11.36c-3.34 0-5.84-2.46-5.84-5.72s2.5-5.7 5.84-5.7 5.84 2.44 5.84 5.7-2.5 5.72-5.84 5.72zm0-2.76c1.68 0 2.88-1.2 2.88-2.96 0-1.74-1.2-2.96-2.88-2.96s-2.88 1.22-2.88 2.96c0 1.76 1.2 2.96 2.88 2.96zm12.866 2.76c-3.04 0-5.08-1.96-5.08-4.88v-6.24h2.92v5.92c0 1.54.82 2.44 2.16 2.44 1.36 0 2.16-.92 2.16-2.44v-5.92h2.92v6.24c0 2.92-2.02 4.88-5.08 4.88zm11.557 0c-2.7 0-4.52-1.56-4.52-3.86h2.84c.02.96.76 1.44 1.8 1.44.8 0 1.54-.38 1.54-1.1 0-.74-.94-.96-2.08-1.14-1.72-.3-3.92-.76-3.92-3.3 0-2.04 1.74-3.46 4.34-3.46s4.32 1.46 4.34 3.62h-2.78c-.02-.86-.62-1.28-1.64-1.28-.9 0-1.44.4-1.44 1.02 0 .72.92.9 2.04 1.1 1.76.32 4.02.68 4.02 3.32 0 2.2-1.8 3.64-4.54 3.64zm17.167-5.74c0 .28-.02.56-.06.84h-8.18c.26 1.48 1.22 2.3 2.64 2.3 1.02 0 1.86-.48 2.3-1.26h3.06c-.78 2.36-2.84 3.86-5.36 3.86-3.18 0-5.6-2.48-5.6-5.72s2.4-5.7 5.6-5.7c3.32 0 5.6 2.56 5.6 5.68zm-5.6-3.18c-1.3 0-2.22.76-2.56 2.04h5.24c-.42-1.32-1.36-2.04-2.68-2.04zm18.044-5.4c2.8 0 4.94 2.06 4.94 4.82s-2.12 4.82-4.94 4.82h-2.36v4.36h-3.02v-14zm-.14 6.84c1.2 0 2.02-.86 2.02-2.02s-.82-2-2.02-2h-2.22v4.02zm12.522-3.7h.96v2.76h-1.28c-1.64 0-2.28.74-2.28 2.5v5.6h-2.92v-10.8h1.86l.52 1.34c.78-.96 1.74-1.4 3.14-1.4zm7.51 11.18c-3.34 0-5.84-2.46-5.84-5.72s2.5-5.7 5.84-5.7 5.84 2.44 5.84 5.7-2.5 5.72-5.84 5.72zm0-2.76c1.68 0 2.88-1.2 2.88-2.96 0-1.74-1.2-2.96-2.88-2.96s-2.88 1.22-2.88 2.96c0 1.76 1.2 2.96 2.88 2.96zm20.226-8.6c2.24 0 3.8 1.74 3.8 4.28v6.76h-2.92v-6.28c0-1.44-.56-2.2-1.62-2.2-1.3 0-2.08.96-2.08 2.64v5.84h-2.84v-6.28c0-1.44-.56-2.2-1.6-2.2-1.32 0-2.1.96-2.1 2.64v5.84h-2.92v-10.8h2.04l.54 1.34c.76-.96 1.94-1.58 3.22-1.58 1.38 0 2.5.64 3.14 1.72.74-1.04 1.96-1.72 3.34-1.72zm20.095 3.04v2.68h-3.32v3.54h-2.88v-3.54h-3.32v-2.68h3.32v-3.44h2.88v3.44zm10.937 0v2.68h-3.32v3.54h-2.88v-3.54h-3.32v-2.68h3.32v-3.44h2.88v3.44z"/><path d="m.0175781 28.4777h31.1378219l-1.0164 3.7269h-29.10499z"/><path d="m23.0664 36.2495v-1.7825l-14.93212.0001v1.7824l7.46612 4.2507z"/><path clip-rule="evenodd" d="m28.95 8.13055v18.08475h-13.3492-13.34934v-18.08475l13.34934-7.630306zm-17.1824 12.05985h4.5094c2.4834 0 4.5094-2.0259 4.5094-4.5094 0-2.4834-2.026-4.5094-4.5094-4.5094h-4.5094z" fill-rule="evenodd"/></g></svg>