<svg width="782" height="267" viewBox="0 0 782 267" fill="none" xmlns="http://www.w3.org/2000/svg">
<path d="M303.96 41.499C322.5 41.499 335.91 54.729 335.91 72.999C335.91 91.269 322.5 104.499 303.96 104.499H280.2V41.499H303.96ZM303.69 91.899C314.49 91.899 321.96 83.979 321.96 72.999C321.96 61.839 314.49 54.189 303.69 54.189H293.79V91.899H303.69ZM393.169 80.109C393.169 81.369 393.079 82.629 392.899 83.889H356.089C357.259 90.549 361.579 94.239 367.969 94.239C372.559 94.239 376.339 92.079 378.319 88.569H392.089C388.579 99.189 379.309 105.939 367.969 105.939C353.659 105.939 342.769 94.779 342.769 80.199C342.769 65.619 353.569 54.549 367.969 54.549C382.909 54.549 393.169 66.069 393.169 80.109ZM367.969 65.799C362.119 65.799 357.979 69.219 356.449 74.979H380.029C378.139 69.039 373.909 65.799 367.969 65.799ZM425.113 105.939C410.443 105.939 399.283 94.689 399.283 80.109C399.283 65.529 410.443 54.549 425.203 54.549C437.803 54.549 447.523 62.559 449.863 74.529H436.813C434.743 69.759 430.333 66.879 425.113 66.879C418.003 66.879 412.603 72.639 412.603 80.199C412.603 87.669 418.093 93.519 425.113 93.519C430.423 93.519 434.563 90.639 436.813 85.419H450.043C447.793 97.659 437.803 105.939 425.113 105.939ZM504.583 104.499H488.653L473.083 81.279V104.499H459.943V38.439H473.083V77.499L487.663 55.899H502.783L486.313 79.119L504.583 104.499ZM538.262 54.819C549.242 54.819 556.082 62.649 556.082 74.979V104.499H542.942V77.229C542.942 69.939 540.332 66.339 534.482 66.339C527.912 66.339 523.592 71.109 523.592 79.029V104.499H510.452V38.439H523.592V60.489C527.282 56.979 532.412 54.819 538.262 54.819ZM591.149 105.939C576.119 105.939 564.869 94.869 564.869 80.199C564.869 65.529 576.119 54.549 591.149 54.549C606.179 54.549 617.429 65.529 617.429 80.199C617.429 94.869 606.179 105.939 591.149 105.939ZM591.149 93.519C598.709 93.519 604.109 88.119 604.109 80.199C604.109 72.369 598.709 66.879 591.149 66.879C583.589 66.879 578.189 72.369 578.189 80.199C578.189 88.119 583.589 93.519 591.149 93.519ZM649.047 105.939C635.367 105.939 626.187 97.119 626.187 83.979V55.899H639.327V82.539C639.327 89.469 643.017 93.519 649.047 93.519C655.167 93.519 658.767 89.379 658.767 82.539V55.899H671.907V83.979C671.907 97.119 662.817 105.939 649.047 105.939ZM701.051 105.939C688.901 105.939 680.711 98.919 680.711 88.569H693.491C693.581 92.889 696.911 95.049 701.591 95.049C705.191 95.049 708.521 93.339 708.521 90.099C708.521 86.769 704.291 85.779 699.161 84.969C691.421 83.619 681.521 81.549 681.521 70.119C681.521 60.939 689.351 54.549 701.051 54.549C712.751 54.549 720.491 61.119 720.581 70.839H708.071C707.981 66.969 705.281 65.079 700.691 65.079C696.641 65.079 694.211 66.879 694.211 69.669C694.211 72.909 698.351 73.719 703.391 74.619C711.311 76.059 721.481 77.679 721.481 89.559C721.481 99.459 713.381 105.939 701.051 105.939ZM778.306 80.109C778.306 81.369 778.216 82.629 778.036 83.889H741.226C742.396 90.549 746.716 94.239 753.106 94.239C757.696 94.239 761.476 92.079 763.456 88.569H777.226C773.716 99.189 764.446 105.939 753.106 105.939C738.796 105.939 727.906 94.779 727.906 80.199C727.906 65.619 738.706 54.549 753.106 54.549C768.046 54.549 778.306 66.069 778.306 80.109ZM753.106 65.799C747.256 65.799 743.116 69.219 741.586 74.979H765.166C763.276 69.039 759.046 65.799 753.106 65.799Z" fill="#0064FF"/>
<path d="M304.41 149.499C317.01 149.499 326.64 158.769 326.64 171.189C326.64 183.609 317.1 192.879 304.41 192.879H293.79V212.499H280.2V149.499H304.41ZM303.78 180.279C309.18 180.279 312.87 176.409 312.87 171.189C312.87 165.969 309.18 162.189 303.78 162.189H293.79V180.279H303.78ZM360.126 163.629H364.446V176.049H358.686C351.306 176.049 348.426 179.379 348.426 187.299V212.499H335.286V163.899H343.656L345.996 169.929C349.506 165.609 353.826 163.629 360.126 163.629ZM393.922 213.939C378.892 213.939 367.642 202.869 367.642 188.199C367.642 173.529 378.892 162.549 393.922 162.549C408.952 162.549 420.202 173.529 420.202 188.199C420.202 202.869 408.952 213.939 393.922 213.939ZM393.922 201.519C401.482 201.519 406.882 196.119 406.882 188.199C406.882 180.369 401.482 174.879 393.922 174.879C386.362 174.879 380.962 180.369 380.962 188.199C380.962 196.119 386.362 201.519 393.922 201.519ZM484.941 162.819C495.021 162.819 502.041 170.649 502.041 182.079V212.499H488.901V184.239C488.901 177.759 486.381 174.339 481.611 174.339C475.761 174.339 472.251 178.659 472.251 186.219V212.499H459.471V184.239C459.471 177.759 456.951 174.339 452.271 174.339C446.331 174.339 442.821 178.659 442.821 186.219V212.499H429.681V163.899H438.861L441.291 169.929C444.711 165.609 450.021 162.819 455.781 162.819C461.991 162.819 467.031 165.699 469.911 170.559C473.241 165.879 478.731 162.819 484.941 162.819ZM575.367 176.499V188.559H560.427V204.489H547.467V188.559H532.527V176.499H547.467V161.019H560.427V176.499H575.367ZM624.586 176.499V188.559H609.646V204.489H596.686V188.559H581.746V176.499H596.686V161.019H609.646V176.499H624.586Z" fill="#00003C"/>
<path d="M0 186.391H206.443L199.704 211.1H6.73892L0 186.391Z" fill="#00003C"/>
<path d="M152.814 237.917V226.1L53.8145 226.1V237.917L103.314 266.1L152.814 237.917Z" fill="#00003C"/>
<path fill-rule="evenodd" clip-rule="evenodd" d="M191.821 51.4892V171.391H103.315H14.8096V51.4892L103.315 0.900391L191.821 51.4892ZM77.9016 131.446H107.799C124.264 131.446 137.696 118.014 137.696 101.549C137.696 85.0834 124.264 71.6514 107.799 71.6514H77.9016V131.446Z" fill="#0064FF"/>
</svg>
