<svg width="782" height="266" viewBox="0 0 782 266" fill="none" xmlns="http://www.w3.org/2000/svg">
<path d="M303.96 40.7432C322.5 40.7432 335.91 53.9732 335.91 72.2432C335.91 90.5132 322.5 103.743 303.96 103.743H280.2V40.7432H303.96ZM303.69 91.1432C314.49 91.1432 321.96 83.2232 321.96 72.2432C321.96 61.0832 314.49 53.4332 303.69 53.4332H293.79V91.1432H303.69ZM393.169 79.3532C393.169 80.6132 393.079 81.8732 392.899 83.1332H356.089C357.259 89.7932 361.579 93.4832 367.969 93.4832C372.559 93.4832 376.339 91.3232 378.319 87.8132H392.089C388.579 98.4332 379.309 105.183 367.969 105.183C353.659 105.183 342.769 94.0232 342.769 79.4432C342.769 64.8632 353.569 53.7932 367.969 53.7932C382.909 53.7932 393.169 65.3132 393.169 79.3532ZM367.969 65.0432C362.119 65.0432 357.979 68.4632 356.449 74.2232H380.029C378.139 68.2832 373.909 65.0432 367.969 65.0432ZM425.113 105.183C410.443 105.183 399.283 93.9332 399.283 79.3532C399.283 64.7732 410.443 53.7932 425.203 53.7932C437.803 53.7932 447.523 61.8032 449.863 73.7732H436.813C434.743 69.0032 430.333 66.1232 425.113 66.1232C418.003 66.1232 412.603 71.8832 412.603 79.4432C412.603 86.9132 418.093 92.7632 425.113 92.7632C430.423 92.7632 434.563 89.8832 436.813 84.6632H450.043C447.793 96.9032 437.803 105.183 425.113 105.183ZM504.583 103.743H488.653L473.083 80.5232V103.743H459.943V37.6832H473.083V76.7432L487.663 55.1432H502.783L486.313 78.3632L504.583 103.743ZM538.262 54.0632C549.242 54.0632 556.082 61.8932 556.082 74.2232V103.743H542.942V76.4732C542.942 69.1832 540.332 65.5832 534.482 65.5832C527.912 65.5832 523.592 70.3532 523.592 78.2732V103.743H510.452V37.6832H523.592V59.7332C527.282 56.2232 532.412 54.0632 538.262 54.0632ZM591.149 105.183C576.119 105.183 564.869 94.1132 564.869 79.4432C564.869 64.7732 576.119 53.7932 591.149 53.7932C606.179 53.7932 617.429 64.7732 617.429 79.4432C617.429 94.1132 606.179 105.183 591.149 105.183ZM591.149 92.7632C598.709 92.7632 604.109 87.3632 604.109 79.4432C604.109 71.6132 598.709 66.1232 591.149 66.1232C583.589 66.1232 578.189 71.6132 578.189 79.4432C578.189 87.3632 583.589 92.7632 591.149 92.7632ZM649.047 105.183C635.367 105.183 626.187 96.3632 626.187 83.2232V55.1432H639.327V81.7832C639.327 88.7132 643.017 92.7632 649.047 92.7632C655.167 92.7632 658.767 88.6232 658.767 81.7832V55.1432H671.907V83.2232C671.907 96.3632 662.817 105.183 649.047 105.183ZM701.051 105.183C688.901 105.183 680.711 98.1632 680.711 87.8132H693.491C693.581 92.1332 696.911 94.2932 701.591 94.2932C705.191 94.2932 708.521 92.5832 708.521 89.3432C708.521 86.0132 704.291 85.0232 699.161 84.2132C691.421 82.8632 681.521 80.7932 681.521 69.3632C681.521 60.1832 689.351 53.7932 701.051 53.7932C712.751 53.7932 720.491 60.3632 720.581 70.0832H708.071C707.981 66.2132 705.281 64.3232 700.691 64.3232C696.641 64.3232 694.211 66.1232 694.211 68.9132C694.211 72.1532 698.351 72.9632 703.391 73.8632C711.311 75.3032 721.481 76.9232 721.481 88.8032C721.481 98.7032 713.381 105.183 701.051 105.183ZM778.306 79.3532C778.306 80.6132 778.216 81.8732 778.036 83.1332H741.226C742.396 89.7932 746.716 93.4832 753.106 93.4832C757.696 93.4832 761.476 91.3232 763.456 87.8132H777.226C773.716 98.4332 764.446 105.183 753.106 105.183C738.796 105.183 727.906 94.0232 727.906 79.4432C727.906 64.8632 738.706 53.7932 753.106 53.7932C768.046 53.7932 778.306 65.3132 778.306 79.3532ZM753.106 65.0432C747.256 65.0432 743.116 68.4632 741.586 74.2232H765.166C763.276 68.2832 759.046 65.0432 753.106 65.0432Z" fill="#0064FF"/>
<path d="M304.41 148.743C317.01 148.743 326.64 158.013 326.64 170.433C326.64 182.853 317.1 192.123 304.41 192.123H293.79V211.743H280.2V148.743H304.41ZM303.78 179.523C309.18 179.523 312.87 175.653 312.87 170.433C312.87 165.213 309.18 161.433 303.78 161.433H293.79V179.523H303.78ZM360.126 162.873H364.446V175.293H358.686C351.306 175.293 348.426 178.623 348.426 186.543V211.743H335.286V163.143H343.656L345.996 169.173C349.506 164.853 353.826 162.873 360.126 162.873ZM393.922 213.183C378.892 213.183 367.642 202.113 367.642 187.443C367.642 172.773 378.892 161.793 393.922 161.793C408.952 161.793 420.202 172.773 420.202 187.443C420.202 202.113 408.952 213.183 393.922 213.183ZM393.922 200.763C401.482 200.763 406.882 195.363 406.882 187.443C406.882 179.613 401.482 174.123 393.922 174.123C386.362 174.123 380.962 179.613 380.962 187.443C380.962 195.363 386.362 200.763 393.922 200.763ZM484.941 162.063C495.021 162.063 502.041 169.893 502.041 181.323V211.743H488.901V183.483C488.901 177.003 486.381 173.583 481.611 173.583C475.761 173.583 472.251 177.903 472.251 185.463V211.743H459.471V183.483C459.471 177.003 456.951 173.583 452.271 173.583C446.331 173.583 442.821 177.903 442.821 185.463V211.743H429.681V163.143H438.861L441.291 169.173C444.711 164.853 450.021 162.063 455.781 162.063C461.991 162.063 467.031 164.943 469.911 169.803C473.241 165.123 478.731 162.063 484.941 162.063ZM575.367 175.743V187.803H560.427V203.733H547.467V187.803H532.527V175.743H547.467V160.263H560.427V175.743H575.367ZM624.586 175.743V187.803H609.646V203.733H596.686V187.803H581.746V175.743H596.686V160.263H609.646V175.743H624.586Z" fill="white"/>
<path d="M0 185.635H206.443L199.704 210.344H6.73892L0 185.635Z" fill="white"/>
<path d="M152.814 237.161V225.344L53.8145 225.344V237.161L103.314 265.344L152.814 237.161Z" fill="white"/>
<path fill-rule="evenodd" clip-rule="evenodd" d="M191.821 50.7333V170.635H103.315H14.8096V50.7333L103.315 0.144531L191.821 50.7333ZM77.9016 130.69H107.799C124.264 130.69 137.696 117.258 137.696 100.793C137.696 84.3276 124.264 70.8955 107.799 70.8955H77.9016V130.69Z" fill="#0064FF"/>
</svg>
