<svg width="540" height="236" viewBox="0 0 540 236" fill="none" xmlns="http://www.w3.org/2000/svg">
<g clip-path="url(#clip0_1473_1404)">
<path d="M204.059 78.923H217.803C228.507 78.923 236.22 86.5616 236.22 97.0431C236.22 107.525 228.433 115.262 217.803 115.262H204.059V78.923ZM217.605 107.97C223.835 107.97 228.186 103.396 228.186 97.0431C228.186 90.6899 223.86 86.2155 217.605 86.2155H211.92V107.945H217.605V107.97Z" fill="white"/>
<path d="M240.175 101.246C240.175 92.7912 246.404 86.438 254.71 86.438C263.017 86.438 269.221 93.0631 269.221 101.147C269.221 101.888 269.172 102.63 269.073 103.372H247.863C248.53 107.203 251.027 109.304 254.71 109.304C257.331 109.304 259.506 108.068 260.668 106.066H268.628C266.601 112.172 261.237 116.078 254.71 116.078C246.429 116.078 240.175 109.675 240.175 101.27V101.246ZM261.657 98.2049C260.594 94.7688 258.122 92.9148 254.735 92.9148C251.348 92.9148 248.975 94.8924 248.085 98.2049H261.657Z" fill="white"/>
<path d="M272.683 101.171C272.683 92.7664 279.085 86.438 287.614 86.438C294.882 86.438 300.493 91.036 301.878 97.933H294.362C293.126 95.1643 290.605 93.5575 287.589 93.5575C283.485 93.5575 280.395 96.8453 280.395 101.196C280.395 105.547 283.535 108.909 287.589 108.909C290.654 108.909 293.077 107.203 294.362 104.212H302.001C300.691 111.257 294.931 116.028 287.614 116.028C279.184 116.028 272.732 109.527 272.732 101.147L272.683 101.171Z" fill="white"/>
<path d="M314.583 101.864V115.287H306.994V77.1678H314.583V99.7376L323.087 87.2785H331.739L322.247 100.677L332.753 115.287H323.606L314.583 101.864Z" fill="white"/>
<path d="M349.983 93.2113C346.201 93.2113 343.704 95.98 343.704 100.529V115.262H336.115V77.143H343.704V89.8493C345.83 87.8223 348.822 86.5862 352.184 86.5862C358.537 86.5862 362.467 91.1101 362.467 98.2543V115.287H354.878V99.515C354.878 95.3126 353.395 93.236 349.983 93.236V93.2113Z" fill="white"/>
<path d="M367.387 101.246C367.387 92.7417 373.863 86.438 382.54 86.438C391.217 86.438 397.694 92.7417 397.694 101.246C397.694 109.749 391.193 116.053 382.54 116.053C373.888 116.053 367.387 109.7 367.387 101.246ZM390.006 101.246C390.006 96.697 386.916 93.5575 382.54 93.5575C378.165 93.5575 375.075 96.697 375.075 101.246C375.075 105.794 378.165 108.934 382.54 108.934C386.916 108.934 390.006 105.794 390.006 101.246Z" fill="white"/>
<path d="M402.563 103.421V87.2291H410.153V102.556C410.153 106.536 412.254 108.934 415.764 108.934C419.275 108.934 421.326 106.511 421.326 102.556V87.2291H428.916V103.421C428.916 110.985 423.7 116.053 415.764 116.053C407.829 116.053 402.588 110.985 402.588 103.421H402.563Z" fill="white"/>
<path d="M433.811 106.041H441.202C441.251 108.538 443.155 109.774 445.874 109.774C447.975 109.774 449.854 108.81 449.854 106.956C449.854 105.102 447.432 104.459 444.465 103.965C439.991 103.223 434.28 102.012 434.28 95.4115C434.28 90.0966 438.779 86.438 445.553 86.438C452.326 86.438 456.751 90.1955 456.776 95.8071H449.582C449.558 93.5822 448 92.4698 445.355 92.4698C443.007 92.4698 441.598 93.5575 441.598 95.1643C441.598 97.0431 443.995 97.4633 446.912 97.9825C451.486 98.7982 457.32 99.7623 457.32 106.61C457.32 112.32 452.648 116.053 445.578 116.053C438.507 116.053 433.835 112.048 433.811 106.041Z" fill="white"/>
<path d="M460.954 101.246C460.954 92.7912 467.184 86.438 475.49 86.438C483.796 86.438 490.001 93.0631 490.001 101.147C490.001 101.888 489.951 102.63 489.852 103.372H468.642C469.31 107.203 471.806 109.304 475.49 109.304C478.11 109.304 480.286 108.068 481.447 106.066H489.407C487.38 112.172 482.016 116.078 475.49 116.078C467.208 116.078 460.954 109.675 460.954 101.27V101.246ZM482.436 98.2049C481.373 94.7688 478.901 92.9148 475.514 92.9148C472.128 92.9148 469.755 94.8924 468.865 98.2049H482.436Z" fill="white"/>
<path d="M204.059 135.78H218.05C225.343 135.78 230.88 141.095 230.88 148.264C230.88 155.433 225.343 160.748 218.05 160.748H211.92V172.094H204.059V135.755V135.78ZM217.704 153.505C220.819 153.505 222.92 151.304 222.92 148.289C222.92 145.273 220.844 143.073 217.704 143.073H211.92V153.505H217.704Z" fill="white"/>
<path d="M235.155 144.086H240.025L241.36 147.522C243.362 145.05 245.884 143.938 249.493 143.938H251.99V151.082H248.702C244.425 151.082 242.744 152.961 242.744 157.559V172.119H235.155V144.086Z" fill="white"/>
<path d="M254.215 158.103C254.215 149.599 260.692 143.295 269.368 143.295C278.045 143.295 284.522 149.599 284.522 158.103C284.522 166.606 278.021 172.91 269.368 172.91C260.716 172.91 254.215 166.557 254.215 158.103ZM276.834 158.103C276.834 153.554 273.744 150.415 269.368 150.415C264.993 150.415 261.903 153.554 261.903 158.103C261.903 162.651 264.993 165.791 269.368 165.791C273.744 165.791 276.834 162.651 276.834 158.103Z" fill="white"/>
<path d="M289.788 144.086H295.078L296.487 147.572C298.465 145.075 301.555 143.443 304.842 143.443C308.402 143.443 311.344 145.1 312.976 147.918C314.879 145.199 318.093 143.443 321.652 143.443C327.462 143.443 331.516 147.992 331.516 154.568V172.144H323.927V155.828C323.927 152.096 322.468 150.118 319.7 150.118C316.313 150.118 314.31 152.615 314.31 156.99V172.144H306.919V155.828C306.919 152.096 305.485 150.118 302.791 150.118C299.355 150.118 297.327 152.615 297.327 156.99V172.144H289.738V144.111L289.788 144.086Z" fill="white"/>
<path d="M345.287 158.3H336.659V151.329H345.287V142.405H352.727V151.329H361.355V158.3H352.727V167.471H345.287V158.3Z" fill="white"/>
<path d="M373.691 158.3H365.063V151.329H373.691V142.405H381.132V151.329H389.759V158.3H381.132V167.471H373.691V158.3Z" fill="white"/>
<path d="M64.0175 146.806V111.876L106.067 69.826L148.117 111.876V146.806H162.108V106.066L106.067 50.0001L50.001 106.066V146.806H64.0175Z" fill="white"/>
<path d="M134.273 160.525L123.471 171.328H88.6394L77.8366 160.525H58.0107L82.8301 185.345H129.28L154.099 160.525H134.273Z" fill="white"/>
<path d="M106.066 100.974L81.543 115.139V143.468L106.066 157.633L130.588 143.468V115.139L106.066 100.974ZM118.698 129.279C118.698 135.385 113.754 140.329 107.648 140.329H96.5977V118.229H107.648C113.754 118.229 118.698 123.173 118.698 129.279Z" fill="white"/>
</g>
<defs>
<clipPath id="clip0_1473_1404">
<rect width="440" height="135.345" fill="white" transform="translate(50 50)"/>
</clipPath>
</defs>
</svg>
